<?xml version="1.0" standalone="no"?>
<!DOCTYPE svg PUBLIC "-//W3C//DTD SVG 20010904//EN"
 "http://www.w3.org/TR/2001/REC-SVG-20010904/DTD/svg10.dtd">
<svg version="1.0" xmlns="http://www.w3.org/2000/svg"
 width="2538.000000pt" height="1620.000000pt" viewBox="0 0 2538.000000 1620.000000"
 preserveAspectRatio="xMidYMid meet">

<g transform="translate(0.000000,1620.000000) scale(0.100000,-0.100000)"
fill="#000000" stroke="none">
<path d="M11970 12565 c-25 -10 -60 -12 -121 -8 -67 4 -92 2 -117 -11 -20 -10
-56 -16 -105 -16 -60 0 -83 -5 -122 -26 -31 -16 -72 -27 -114 -31 -50 -4 -79
-14 -121 -39 -34 -20 -75 -35 -108 -39 -40 -5 -64 -16 -100 -45 -27 -21 -74
-45 -106 -54 -41 -12 -72 -30 -105 -61 -26 -25 -70 -53 -102 -64 -42 -16 -67
-34 -102 -75 -26 -30 -57 -58 -69 -62 -41 -12 -79 -46 -109 -94 -16 -25 -39
-51 -52 -57 -42 -19 -88 -65 -111 -112 -13 -25 -46 -65 -74 -88 -37 -32 -55
-56 -66 -91 -10 -28 -32 -63 -52 -83 -40 -38 -68 -88 -78 -138 -3 -19 -22 -53
-41 -77 -40 -48 -50 -71 -59 -136 -4 -26 -15 -57 -25 -70 -35 -45 -51 -88 -51
-137 0 -34 -9 -68 -30 -113 -26 -54 -30 -70 -25 -114 5 -38 1 -63 -14 -102
-16 -39 -21 -75 -21 -145 0 -50 0 -120 0 -154 0 -35 -1 -79 -1 -98 0 -19 0
-60 0 -90 0 -30 0 -71 0 -90 0 -19 0 -60 0 -90 0 -30 0 -71 0 -90 0 -19 0 -61
0 -92 1 -32 0 -74 0 -93 -1 -19 -1 -59 0 -87 0 -29 0 -66 0 -83 0 -16 0 -57 0
-90 0 -33 0 -73 0 -90 0 -16 0 -57 0 -90 0 -33 0 -73 0 -90 0 -16 0 -57 0 -90
0 -33 0 -73 0 -90 0 -16 0 -54 0 -82 -1 -29 -1 -69 0 -88 0 -19 1 -61 0 -92 0
-32 0 -74 0 -93 0 -19 0 -60 0 -90 0 -30 0 -71 0 -90 0 -19 0 -60 0 -90 0 -30
0 -71 0 -90 0 -19 0 -60 0 -90 0 -30 1 -67 2 -82 0 -16 -2 -49 -6 -75 -11 -67
7 -108 47 -108 28 0 30 2 23 28 -4 15 -7 45 -5 67 1 22 1 61 1 88 0 26 -1 63
0 82 0 19 0 60 0 90 0 30 0 71 0 90 0 19 0 60 0 90 0 30 0 71 0 90 -1 19 0 56
0 83 0 26 0 65 0 87 -1 22 -1 63 0 90 0 28 0 68 0 90 -1 22 -1 64 -1 93 0 28
0 70 0 92 0 22 0 63 0 90 0 28 0 68 0 90 0 22 0 63 0 90 0 28 0 68 0 90 0 22
0 64 0 93 0 28 0 70 1 92 0 22 0 63 0 90 -1 28 -1 68 0 90 0 22 0 61 0 88 0
26 -1 63 0 82 0 107 -1 148 -1 178 -1 17 2 49 6 71 4 23 1 53 -6 76 -10 30
-10 48 2 95 11 43 12 72 5 112 -8 46 -6 63 12 110 13 35 21 78 21 119 0 49 6
77 25 114 17 34 25 66 25 102 0 43 7 63 35 110 22 35 40 79 45 113 9 53 31 97
64 124 14 12 27 46 40 104 4 15 29 52 56 82 27 30 54 72 61 95 9 30 27 54 62
83 27 23 60 63 73 89 16 31 43 62 78 88 30 22 69 60 86 85 20 29 49 54 80 70
27 13 67 47 90 74 32 37 55 54 92 67 30 10 72 36 103 64 38 34 66 51 104 60
32 7 69 26 97 50 34 28 59 39 96 44 53 7 100 27 131 54 11 10 47 19 90 23 49
5 88 16 122 34 42 22 58 25 101 20 36 -4 63 -1 95 11 29 11 81 18 149 20 252
8 414 1 469 -20 32 -12 59 -15 95 -11 43 5 59 2 101 -20 34 -18 73 -29 122
-34 43 -4 79 -13 90 -23 31 -27 78 -47 131 -54 37 -5 62 -16 96 -44 28 -24 65
-43 97 -50 38 -9 66 -26 104 -60 31 -28 73 -54 103 -64 37 -13 60 -30 92 -67
23 -27 63 -61 90 -74 31 -16 60 -41 80 -70 17 -25 56 -63 86 -85 35 -26 62
-57 78 -88 13 -26 46 -66 73 -89 35 -29 53 -53 62 -83 7 -23 34 -65 61 -95 27
-30 52 -67 56 -82 13 -58 26 -92 40 -104 33 -27 55 -71 64 -124 5 -34 23 -78
45 -113 28 -47 35 -67 35 -110 0 -36 8 -68 25 -102 19 -37 25 -65 25 -114 0
-41 8 -84 21 -119 18 -47 20 -64 12 -110 -7 -40 -6 -69 5 -112 12 -47 12 -65
2 -95 -7 -23 -10 -53 -6 -76 4 -22 7 -54 6 -71 -1 -54 -2 -126 -1 -168 1 -22
1 -64 1 -92 0 -29 0 -71 0 -93 0 -22 0 -64 0 -92 0 -29 0 -71 -1 -93 0 -22 0
-61 0 -87 0 -27 1 -64 1 -83 0 -19 -1 -56 -1 -82 0 -27 0 -66 0 -88 1 -22 1
-64 1 -92 0 -29 0 -71 0 -93 0 -22 0 -62 0 -90 0 -27 0 -68 0 -90 0 -22 0 -62
0 -90 -1 -94 -1 -120 -1 -175 0 -30 0 -71 0 -90 1 -19 0 -56 0 -82 0 -27 0
-66 0 -88 1 -22 1 -64 1 -92 0 -29 0 -71 0 -93 0 -22 0 -62 0 -90 0 -27 0 -65
1 -82 1 -18 -1 -48 -6 -65 -7 -32 -6 -33 23 -33 26 0 32 5 42 36 7 20 9 53 6
77 -4 23 -6 54 -6 70 1 29 1 76 1 262 0 30 0 71 0 90 0 19 0 60 0 90 0 30 0
71 0 90 0 19 0 61 0 93 -1 31 0 73 0 92 1 19 1 59 0 88 0 28 0 66 0 82 0 71 0
156 0 265 0 30 0 71 0 90 0 19 0 60 0 90 0 30 0 71 0 90 0 19 0 60 0 90 0 89
0 112 0 175 0 33 0 74 0 90 0 17 0 54 0 83 1 28 1 68 0 87 0 31 -1 62 0 185 0
19 -1 63 -1 98 0 34 0 104 0 154 0 70 -5 106 -21 145 -15 39 -19 64 -14 102 5
44 1 60 -25 114 -21 45 -30 79 -30 113 0 49 -16 92 -51 137 -10 13 -21 44 -25
70 -9 65 -19 88 -59 136 -19 24 -38 58 -41 77 -10 50 -38 100 -78 138 -20 20
-42 55 -52 83 -11 35 -29 59 -66 91 -28 23 -61 63 -74 88 -23 47 -69 93 -111
112 -13 6 -36 32 -52 57 -30 48 -68 82 -109 94 -12 4 -43 32 -69 62 -35 41
-60 59 -102 75 -32 11 -76 39 -102 64 -33 31 -64 49 -105 61 -32 9 -79 33
-106 54 -36 29 -60 40 -100 45 -33 4 -74 19 -108 39 -42 25 -71 35 -121 39
-42 4 -83 15 -114 31 -39 21 -62 26 -122 26 -49 0 -85 6 -106 16 -25 13 -48
15 -113 10 -60 -4 -93 -2 -124 9 -51 18 -74 18 -120 0z"/>
<path d="M11875 12343 c-25 -9 -67 -15 -112 -14 -55 1 -82 -3 -112 -19 -28
-14 -59 -20 -103 -20 -52 0 -70 -5 -102 -26 -26 -18 -60 -29 -103 -34 -50 -7
-74 -15 -104 -39 -31 -25 -105 -51 -146 -51 -2 0 -22 -18 -46 -39 -25 -23 -60
-44 -87 -51 -30 -8 -60 -27 -90 -57 -25 -25 -68 -56 -96 -68 -37 -16 -60 -36
-83 -69 -18 -25 -46 -53 -64 -62 -45 -23 -76 -53 -98 -96 -10 -20 -38 -49 -61
-65 -29 -19 -51 -45 -69 -80 -14 -29 -45 -72 -70 -96 -33 -32 -49 -56 -58 -91
-7 -30 -26 -63 -51 -90 -29 -31 -43 -57 -51 -97 -7 -31 -25 -71 -44 -96 -24
-31 -34 -57 -39 -98 -4 -33 -19 -80 -37 -113 -24 -45 -30 -65 -25 -96 3 -29
-2 -57 -21 -100 -21 -50 -24 -69 -18 -113 5 -39 2 -68 -11 -105 -15 -45 -15
-60 -5 -114 10 -48 10 -67 1 -84 -7 -14 -9 -40 -5 -69 3 -25 5 -62 5 -81 -1
-19 -2 -56 -1 -82 0 -27 1 -64 0 -83 0 -19 0 -60 0 -90 0 -30 0 -71 0 -90 0
-19 0 -60 0 -90 0 -30 0 -71 0 -90 0 -19 0 -61 0 -92 1 -32 0 -74 0 -93 -1
-19 -1 -56 0 -82 0 -27 1 -64 0 -83 0 -19 0 -60 0 -90 0 -30 0 -71 0 -90 0
-19 0 -60 0 -90 0 -30 0 -71 0 -90 1 -19 0 -57 0 -85 0 -27 0 -68 0 -90 0 -22
0 -62 0 -90 0 -27 1 -66 0 -85 0 -19 0 -60 0 -90 0 -30 0 -71 0 -90 0 -19 0
-60 0 -90 0 -30 0 -71 0 -90 1 -19 0 -56 0 -82 -1 -27 0 -64 2 -83 1 -19 -1
-50 -6 -67 -7 -32 -6 -33 22 -33 24 0 31 6 43 38 14 41 134 245 243 417 174
272 286 409 387 470 45 27 279 135 294 135 1 0 -8 -46 -21 -102 -53 -237 -93
-541 -109 -825 l-6 -123 1220 0 1221 0 -5 88 c-16 276 -63 619 -118 862 -13
58 -22 107 -21 108 5 5 180 -66 250 -101 146 -72 205 -130 332 -322 120 -181
308 -516 332 -592 13 -38 18 -43 44 -43 28 0 29 2 22 33 -4 17 -6 47 -6 65 1
17 1 55 1 82 0 28 0 66 1 85 0 19 0 60 0 90 0 30 0 71 0 90 0 19 0 60 0 90 0
30 0 71 0 90 -1 19 -1 58 -1 85 0 28 0 66 1 85 0 19 0 60 0 90 0 30 0 71 0 90
0 19 0 61 0 93 -1 31 0 73 0 92 1 19 1 56 0 83 0 26 -1 63 0 82 0 19 0 60 0
90 0 30 0 71 0 90 0 19 0 61 0 93 -1 31 0 73 0 92 1 19 1 56 0 83 0 26 -1 63
0 82 0 19 0 60 0 90 0 30 0 71 0 90 -1 19 0 56 0 83 1 26 0 63 -1 82 0 19 2
56 5 81 4 29 2 55 -5 69 -9 17 -9 36 1 84 10 54 10 69 -5 114 -13 37 -16 66
-11 105 6 44 3 63 -18 113 -19 43 -24 71 -21 100 5 31 -1 51 -25 96 -18 33
-33 80 -37 113 -5 41 -15 67 -39 98 -19 25 -37 65 -44 96 -8 40 -22 66 -51 97
-25 27 -44 60 -51 90 -9 35 -25 59 -58 91 -25 24 -56 67 -70 96 -18 35 -40 61
-69 80 -23 16 -49 43 -58 60 -23 45 -53 76 -96 98 -20 10 -51 40 -69 65 -23
33 -46 53 -83 69 -28 12 -71 43 -96 68 -30 30 -60 49 -90 57 -27 7 -62 28 -87
51 -24 21 -44 39 -46 39 -41 0 -115 26 -146 51 -30 24 -54 32 -104 39 -43 5
-77 16 -103 34 -32 21 -50 26 -102 26 -44 0 -75 6 -103 20 -31 16 -57 20 -112
19 -45 -1 -88 5 -115 15 -35 13 -52 14 -94 5 -44 -10 -82 -8 -153 6 -11 2 -38
-3 -60 -12z m115 -64 c24 -9 45 -9 86 1 48 12 62 11 110 -4 39 -12 70 -15 107
-11 41 5 62 2 97 -14 29 -13 66 -21 105 -21 48 0 68 -5 99 -26 25 -17 59 -29
97 -33 43 -5 71 -16 103 -39 26 -19 66 -36 98 -42 39 -8 62 -20 89 -46 20 -20
56 -41 84 -49 31 -10 66 -32 99 -63 29 -27 68 -54 88 -61 26 -8 48 -28 72 -61
23 -32 53 -58 84 -74 37 -19 53 -34 67 -67 13 -27 37 -55 68 -77 35 -25 55
-50 71 -87 14 -31 39 -64 63 -83 30 -23 43 -43 52 -76 6 -26 28 -64 50 -90 41
-47 45 -56 55 -117 4 -20 22 -56 41 -80 27 -34 35 -53 35 -85 0 -27 11 -62 30
-99 23 -43 30 -70 30 -111 0 -37 7 -69 22 -97 17 -33 21 -57 19 -112 -1 -43 4
-87 14 -114 12 -34 13 -52 4 -87 -6 -24 -8 -60 -4 -81 3 -21 6 -53 5 -70 0
-18 0 -55 0 -83 0 -27 0 -66 -1 -85 0 -19 0 -60 0 -90 0 -30 0 -71 0 -90 0
-19 0 -60 0 -90 0 -30 0 -71 0 -90 1 -19 1 -57 1 -85 0 -27 0 -66 -1 -85 0
-19 0 -60 0 -90 0 -30 0 -71 0 -90 0 -19 0 -61 0 -92 1 -32 0 -74 0 -93 -1
-19 -1 -56 0 -82 0 -27 1 -64 0 -83 0 -19 0 -60 0 -90 0 -30 0 -71 0 -90 0
-19 0 -61 0 -92 1 -32 0 -74 0 -93 -1 -19 -1 -56 0 -82 0 -27 1 -64 0 -83 0
-19 0 -60 0 -90 0 -30 0 -71 0 -90 0 -19 0 -59 -1 -87 0 -29 3 -65 7 -80 14
-54 -11 -27 -60 64 -129 238 -276 470 -364 576 -110 132 -344 244 -771 367
l-184 53 -11 43 c-12 49 -30 61 -41 27 -8 -22 -8 -22 -15 7 -4 17 -7 51 -8 76
-1 43 1 47 44 77 46 32 105 105 105 129 0 7 8 13 19 13 23 0 36 16 45 53 4 16
19 47 33 70 14 23 29 53 33 67 5 18 12 24 28 22 24 -4 26 1 12 27 -5 10 -13
45 -18 77 -11 64 -18 51 76 136 17 15 38 50 47 78 13 40 22 51 43 57 26 6 83
50 159 121 38 34 37 27 18 137 -7 39 -5 42 33 68 21 15 50 39 62 52 l23 24
-36 -6 c-39 -6 -110 13 -102 28 4 5 16 9 29 9 49 0 111 61 131 130 7 23 5 22
-34 -13 -53 -48 -101 -49 -135 -4 l-20 28 26 22 c29 24 48 57 48 82 0 14 -3
14 -17 -4 -10 -11 -33 -24 -50 -27 l-33 -6 0 46 c0 57 -19 106 -52 132 -21 16
-23 24 -16 44 5 14 5 35 -1 52 -7 19 -7 38 -1 54 15 39 12 112 -7 147 -9 18
-17 55 -18 82 -1 28 -10 68 -20 90 -23 48 -101 127 -143 144 -21 9 -35 25 -47
57 -23 61 -58 100 -119 132 -41 21 -65 26 -126 27 -41 0 -84 -3 -96 -8 -18 -6
-22 -1 -38 49 -23 72 -83 135 -152 157 -53 17 -144 32 -144 24 0 -3 31 -14 68
-26 99 -30 171 -96 197 -181 7 -23 6 -23 -23 8 -19 20 -40 32 -56 32 -16 0
-48 18 -84 47 -158 129 -351 157 -443 64 -20 -20 -38 -42 -40 -49 -3 -10 -17
-9 -69 4 -131 33 -282 0 -367 -81 -24 -23 -64 -50 -88 -60 -50 -19 -95 -66
-95 -98 0 -13 -14 -33 -34 -49 -18 -15 -47 -48 -64 -73 -17 -26 -51 -59 -75
-75 -91 -57 -140 -154 -141 -275 -1 -44 2 -99 7 -122 6 -38 4 -46 -23 -76 -35
-40 -37 -47 -12 -41 9 3 26 -1 36 -9 19 -14 19 -15 -8 -32 -45 -30 -77 -96
-77 -159 0 -50 -5 -61 -45 -113 -61 -79 -78 -141 -71 -264 7 -140 50 -209 130
-209 22 0 26 -6 31 -47 4 -27 14 -69 22 -94 16 -49 73 -124 102 -133 9 -3 28
-26 41 -52 32 -60 90 -108 165 -137 56 -21 63 -27 84 -72 31 -64 51 -87 73
-80 12 4 23 -5 38 -29 23 -37 146 -156 161 -156 11 0 12 -72 1 -110 -7 -24 -7
-24 -18 -5 -15 26 -30 12 -40 -39 l-9 -40 -164 -47 c-236 -68 -387 -122 -525
-188 -169 -81 -223 -125 -337 -276 -66 -87 -211 -309 -303 -463 -51 -86 -82
-129 -89 -122 -6 6 -5 23 4 49 7 23 10 54 6 77 -4 22 -7 54 -6 72 0 17 1 57 1
87 0 30 0 71 0 90 0 19 0 61 0 93 -1 31 0 73 0 92 1 19 1 56 0 83 0 26 -1 63
0 82 0 19 0 60 0 90 0 30 0 71 0 90 0 19 0 60 0 90 0 30 0 71 0 90 0 19 0 61
0 93 -1 31 0 73 0 92 1 19 1 56 0 83 0 26 -1 63 0 82 0 19 0 60 0 90 0 30 0
71 0 90 0 19 0 60 0 90 0 30 0 71 0 90 0 19 0 61 0 93 -1 31 0 73 0 92 1 36 0
104 -1 163 -1 17 2 49 5 70 4 21 2 57 -4 81 -9 35 -8 53 4 87 10 27 15 71 14
114 -2 55 2 79 19 112 15 28 22 60 22 97 0 41 7 68 30 111 19 37 30 72 30 99
0 32 8 51 35 85 19 24 37 60 41 80 10 61 14 70 55 117 22 26 44 64 50 90 9 33
22 53 52 76 24 19 49 52 63 83 16 37 36 62 71 87 31 22 55 50 68 77 14 33 30
48 67 67 31 16 61 42 84 74 24 33 46 53 72 61 20 7 59 34 88 61 33 31 68 53
99 63 28 8 64 29 84 49 27 26 50 38 89 46 32 6 72 23 98 42 32 23 60 34 103
39 38 4 72 16 97 33 31 21 51 26 99 26 39 0 76 8 105 21 36 16 57 19 100 14
38 -4 68 -1 95 9 49 18 82 19 125 5z m-507 -462 c-15 -19 -30 -32 -32 -30 -5
3 49 63 57 63 2 0 -9 -15 -25 -33z m607 13 c14 -4 -13 -5 -60 -2 -47 2 -87 6
-89 8 -8 7 124 2 149 -6z m-163 -6 c-3 -3 -12 -4 -19 -1 -8 3 -5 6 6 6 11 1
17 -2 13 -5z m259 -30 c18 -14 18 -14 -6 -3 -31 14 -36 19 -24 19 6 0 19 -7
30 -16z m-739 -46 c-3 -8 -6 -5 -6 6 -1 11 2 17 5 13 3 -3 4 -12 1 -19z m28
-94 c13 -8 42 -18 66 -23 33 -7 37 -9 16 -10 -32 -1 -87 20 -104 40 -6 8 -14
28 -17 44 -5 28 -5 28 6 -3 6 -19 21 -40 33 -48z m1065 22 c-6 -19 -17 -40
-25 -46 -8 -7 -6 3 6 27 10 20 19 44 19 52 0 8 3 12 6 8 3 -3 1 -21 -6 -41z
m107 -41 c-15 -14 -38 -25 -50 -24 -18 0 -16 3 10 12 18 7 38 18 45 25 6 6 14
12 18 12 3 0 -8 -12 -23 -25z m-1020 -1 c-3 -3 -12 -4 -19 -1 -8 3 -5 6 6 6
11 1 17 -2 13 -5z m418 -13 c46 -20 91 -69 112 -120 20 -48 10 -49 -12 -1 -24
54 -94 117 -139 125 -62 12 -99 -2 -172 -65 -126 -110 -244 -152 -360 -131
-100 19 -185 86 -184 145 1 16 5 12 16 -14 30 -70 80 -106 170 -120 112 -18
222 19 329 111 33 28 74 60 90 70 38 24 98 24 150 0z m488 -38 c-13 -2 -33 -2
-45 0 -13 2 -3 4 22 4 25 0 35 -2 23 -4z m-86 -9 c-3 -3 -12 -4 -19 -1 -8 3
-5 6 6 6 11 1 17 -2 13 -5z m240 -34 c63 -31 140 -98 163 -141 8 -13 -10 1
-38 32 -51 55 -136 109 -216 136 -40 13 -40 13 -6 8 19 -3 63 -19 97 -35z
m-666 -45 c14 -29 18 -63 18 -125 l-1 -85 -13 66 c-13 66 -33 116 -63 154 -8
11 1 3 21 -17 21 -21 37 -33 37 -27 0 14 -29 70 -49 94 l-16 20 24 -20 c13
-11 32 -38 42 -60z m547 -54 c77 -39 115 -95 192 -283 19 -48 41 -83 56 -93
86 -56 164 -183 164 -265 0 -41 -48 -234 -49 -200 -1 9 8 48 19 88 28 101 26
147 -11 220 -21 43 -51 80 -98 122 -63 55 -70 67 -106 157 -64 167 -124 237
-225 263 -88 23 -201 -13 -245 -78 -14 -20 -25 -31 -25 -25 0 34 79 97 145
114 46 12 141 2 183 -20z m-1297 -110 c-121 -121 -37 -253 159 -255 113 0 204
35 330 127 40 29 48 33 31 14 l-25 -27 61 6 c36 4 129 -1 227 -11 144 -16 177
-17 250 -5 46 7 94 10 108 7 28 -7 207 -153 229 -188 34 -51 81 -194 86 -261
3 -37 4 -68 1 -68 -3 0 -27 9 -53 21 -127 56 -336 24 -445 -68 -39 -32 -80
-115 -80 -161 l0 -33 -30 16 c-37 19 -73 19 -111 -1 -17 -8 -32 -14 -33 -12
-1 2 -8 21 -14 44 -36 124 -200 214 -389 214 -134 0 -235 -42 -293 -121 -38
-53 -46 -98 -32 -178 22 -132 109 -252 200 -279 153 -46 345 -9 439 85 41 41
83 119 83 154 0 34 53 79 93 79 51 0 82 -31 107 -104 28 -84 68 -136 132 -172
51 -28 58 -29 178 -29 117 0 129 2 183 28 33 17 71 46 89 68 39 49 45 41 58
-70 12 -108 -3 -239 -45 -391 -19 -69 -37 -147 -41 -175 -16 -124 -92 -197
-237 -229 l-28 -7 6 44 c4 28 1 67 -9 106 -9 35 -16 72 -16 84 0 16 -3 18 -9
9 -4 -7 -4 -32 0 -55 15 -79 11 -157 -11 -193 -45 -72 -209 -150 -339 -161
-122 -10 -253 39 -330 123 -49 52 -57 91 -37 171 26 99 18 129 -9 38 -28 -93
-31 -139 -10 -179 21 -39 20 -39 -26 -32 -127 20 -279 147 -351 294 -27 55
-33 79 -40 184 -8 103 -14 132 -46 211 -32 80 -37 101 -34 157 2 36 4 97 4
135 0 39 -2 99 -4 135 -3 61 -1 69 28 105 44 56 89 138 118 218 26 68 61 305
48 319 -4 4 -24 8 -46 10 -33 2 -43 -3 -75 -37 -20 -22 -44 -51 -54 -65 -17
-25 -17 -25 -6 -1 6 13 30 44 52 68 39 42 40 45 22 56 -34 18 -72 65 -78 95
-9 46 12 103 53 144 21 21 40 38 44 38 3 0 -12 -18 -33 -39z m1626 -73 c-3 -8
-6 -5 -6 6 -1 11 2 17 5 13 3 -3 4 -12 1 -19z m-1820 -50 c-3 -7 -5 -2 -5 12
0 14 2 19 5 13 2 -7 2 -19 0 -25z m2 -114 c1 -17 -9 -25 -46 -37 -26 -9 -49
-14 -51 -13 -2 3 29 16 71 30 16 5 18 14 13 63 -4 51 -4 53 4 18 5 -22 9 -50
9 -61z m1575 -425 c30 -11 78 -40 105 -65 57 -51 77 -101 67 -171 -7 -55 -57
-153 -102 -203 -61 -67 -186 -100 -310 -80 -140 23 -201 85 -233 242 -20 94
30 202 113 245 106 56 261 69 360 32z m-934 -25 c152 -43 243 -152 226 -272
-8 -58 -52 -137 -96 -173 -120 -100 -380 -105 -475 -11 -63 62 -105 171 -105
268 0 44 5 60 33 96 79 104 244 140 417 92z m1207 -111 c-3 -10 -5 -4 -5 12 0
17 2 24 5 18 2 -7 2 -21 0 -30z m-1883 -44 c-41 -44 -99 -69 -159 -68 l-50 2
62 8 c69 9 107 25 142 63 14 14 27 26 30 26 2 0 -8 -14 -25 -31z m-217 -55
c-3 -3 -12 -4 -19 -1 -8 3 -5 6 6 6 11 1 17 -2 13 -5z m82 -150 c14 -12 -19
-1 -35 12 -18 14 -18 14 6 3 14 -6 27 -13 29 -15z m2066 8 c-3 -3 -11 0 -18 7
-9 10 -8 11 6 5 10 -3 15 -9 12 -12z m103 -9 c-15 -2 -42 -2 -60 0 -18 2 -6 4
27 4 33 0 48 -2 33 -4z m-2053 -17 c35 -15 59 -44 69 -86 4 -14 -2 -8 -14 15
-25 49 -49 66 -115 75 -46 7 -47 8 -12 9 21 0 53 -5 72 -13z m1898 -145 c-5
-9 -65 44 -79 71 -13 25 -8 23 33 -19 26 -26 47 -50 46 -52z m-1715 -205 l-1
-71 -6 75 c-3 41 -10 82 -14 90 -5 8 -1 6 7 -4 12 -15 16 -39 14 -90z m1649
-3 c-3 -10 -5 -2 -5 17 0 19 2 27 5 18 2 -10 2 -26 0 -35z m-37 -116 c-16 -41
-30 -84 -31 -94 0 -12 -2 -13 -6 -5 -3 8 10 54 28 104 19 49 35 85 37 80 1 -5
-11 -43 -28 -85z m-43 -149 c-3 -7 -5 -2 -5 12 0 14 2 19 5 13 2 -7 2 -19 0
-25z m-215 -390 l4 -93 -50 -75 c-97 -143 -244 -281 -380 -355 -76 -42 -76
-45 -24 -128 36 -56 92 -104 164 -140 l51 -26 39 26 c111 73 217 210 260 333
28 80 47 215 37 273 -7 45 -24 46 175 -13 l127 -37 -3 -89 c-7 -207 -56 -462
-112 -579 -67 -141 -227 -225 -486 -255 -115 -13 -533 -13 -648 0 -260 30
-427 118 -490 260 -55 122 -104 373 -108 559 l-3 95 70 22 c39 12 112 33 163
47 l92 26 0 -93 c0 -113 18 -185 72 -296 33 -67 58 -101 122 -165 45 -44 95
-88 112 -97 30 -17 32 -17 84 10 66 33 150 113 179 169 11 23 21 47 21 52 0 5
-26 24 -57 41 -88 46 -183 122 -266 210 -87 93 -180 226 -172 247 3 8 5 43 5
78 l0 64 45 -20 c25 -11 69 -23 98 -26 32 -3 69 -16 98 -34 61 -38 149 -68
234 -79 137 -17 307 35 393 120 37 37 74 53 139 59 7 1 12 -30 15 -91z m-147
-478 c-45 -46 -113 -95 -120 -88 -3 3 12 17 33 31 21 15 55 45 77 67 21 22 41
37 44 35 2 -3 -13 -23 -34 -45z m-643 -22 c44 -24 75 -44 69 -46 -5 -2 -47 17
-93 42 -46 25 -77 46 -69 46 7 0 49 -19 93 -42z m15 -109 c15 -6 23 -13 17
-15 -6 -3 -31 5 -55 16 -46 21 -16 20 38 -1z"/>
<path d="M11661 11034 c-75 -20 -161 -68 -207 -115 l-39 -40 66 44 c36 24 101
58 145 76 43 18 88 36 99 41 31 14 -3 11 -64 -6z"/>
<path d="M12135 10944 c-72 -12 -114 -13 -210 -5 -179 15 -317 -11 -390 -75
l-30 -26 36 21 c78 45 180 62 364 60 94 0 194 4 224 10 123 25 288 4 376 -49
l50 -30 -38 34 c-22 19 -60 42 -85 51 -65 23 -190 27 -297 9z"/>
<path d="M12216 10825 c-33 -25 -56 -68 -55 -105 l0 -35 14 39 c7 21 31 56 51
77 37 38 30 54 -10 24z"/>
<path d="M12363 10810 c-32 -10 -110 -76 -101 -85 3 -3 32 7 64 22 101 46 183
41 309 -19 l40 -19 -29 25 c-78 65 -205 99 -283 76z"/>
<path d="M11858 10782 c23 -16 54 -44 67 -62 18 -25 25 -29 25 -16 0 42 -71
106 -117 106 -12 0 -3 -10 25 -28z"/>
<path d="M11543 10770 c-32 -7 -83 -36 -83 -45 0 -3 14 2 32 11 44 23 138 14
256 -25 51 -17 106 -31 124 -31 30 0 31 0 13 20 -24 26 -104 55 -192 69 -80
12 -103 12 -150 1z"/>
<path d="M12053 10320 c18 -82 29 -187 25 -255 -3 -68 -2 -74 9 -49 7 16 12
52 12 79 1 52 -33 233 -45 244 -4 3 -4 -5 -1 -19z"/>
<path d="M12321 10030 c-1 -93 20 -162 71 -227 75 -97 100 -134 108 -161 8
-25 8 -25 9 -4 1 30 -28 87 -79 151 -62 79 -81 128 -104 281 -2 14 -4 -4 -5
-40z"/>
<path d="M11821 10034 c-15 -60 -43 -115 -81 -158 -44 -50 -70 -117 -75 -193
-4 -66 -4 -66 6 -23 28 118 40 147 80 195 49 59 74 112 84 178 8 60 1 61 -14
1z"/>
<path d="M11871 10044 c-24 -31 -27 -71 -6 -100 12 -18 25 -21 85 -22 46 -1
79 -7 93 -17 27 -19 61 -19 95 -1 44 23 86 39 106 41 23 2 55 43 56 71 0 11
-7 29 -15 40 -13 17 -13 16 -3 -12 10 -27 9 -36 -7 -60 l-18 -29 -10 28 c-13
39 -35 34 -88 -23 -56 -60 -82 -64 -125 -19 -49 52 -114 63 -114 18 0 -25 -36
-25 -50 0 -15 30 -12 56 11 85 11 14 18 26 15 26 -2 0 -14 -12 -25 -26z"/>
<path d="M12062 9808 c-1 -25 -5 -55 -8 -65 -5 -17 -5 -17 6 0 6 9 9 39 7 65
l-3 47 -2 -47z"/>
<path d="M12115 9805 c3 -27 10 -54 15 -59 12 -12 12 -13 -5 54 l-15 55 5 -50z"/>
<path d="M12320 9745 c-19 -7 -55 -14 -80 -14 -25 -1 -68 -7 -97 -15 -36 -10
-64 -11 -95 -5 -53 11 -264 -2 -261 -16 1 -5 20 -13 42 -17 21 -4 57 -16 78
-27 49 -24 150 -51 194 -51 49 0 102 17 140 44 19 14 58 41 87 61 73 50 69 70
-8 40z"/>
<path d="M12404 10521 c-38 -17 -104 -84 -104 -105 0 -6 17 7 38 27 38 37 39
37 53 18 11 -15 29 -20 77 -23 59 -4 63 -3 69 20 l6 24 36 -35 c42 -39 91 -77
100 -77 12 0 -133 148 -156 159 -32 16 -72 13 -119 -8z"/>
<path d="M12698 10487 c-21 -6 -38 -15 -38 -20 0 -13 52 1 70 19 8 8 12 13 10
13 -3 -1 -22 -6 -42 -12z"/>
<path d="M12681 10451 c-9 -6 0 -10 28 -13 41 -4 55 5 25 16 -21 8 -36 7 -53
-3z"/>
<path d="M12270 10354 c2 -36 73 -84 125 -83 38 1 39 1 10 8 -41 10 -75 29
-107 59 -16 14 -28 22 -28 16z"/>
<path d="M11584 10502 c-22 -11 -63 -36 -91 -56 -28 -20 -68 -43 -89 -50 -22
-8 -32 -15 -23 -15 27 -1 91 24 144 58 57 36 61 37 68 12 7 -29 115 -35 139
-9 22 25 48 12 78 -37 12 -20 25 -34 27 -31 10 10 -47 95 -79 117 -43 31 -120
36 -174 11z"/>
<path d="M11353 10467 c22 -19 22 -23 -5 -30 -32 -9 -18 -15 19 -10 18 3 30 9
28 14 -3 4 3 12 12 18 16 9 14 10 -9 11 -14 0 -35 3 -45 6 -17 5 -17 5 0 -9z"/>
<path d="M11755 10339 c-22 -16 -64 -35 -92 -41 -63 -15 -71 -33 -10 -23 50 8
122 48 137 75 13 25 14 25 -35 -11z"/>
<path d="M11750 9236 c0 -4 11 -29 25 -56 38 -76 74 -196 82 -271 6 -76 23
-94 23 -26 0 66 -27 174 -60 244 -27 59 -70 125 -70 109z"/>
<path d="M12301 9173 c-39 -47 -71 -143 -70 -207 l1 -51 13 60 c15 67 47 154
75 203 25 42 19 41 -19 -5z"/>
<path d="M9862 7684 c-68 -35 -67 -22 -70 -596 l-3 -518 81 0 80 0 0 125 0
125 65 0 65 0 0 -125 0 -125 86 0 85 0 -3 513 c-3 563 -2 553 -65 594 -40 26
-273 31 -321 7z m210 -148 c4 -6 8 -140 8 -298 l0 -288 -65 0 -65 0 2 292 3
292 25 13 c27 14 80 8 92 -11z"/>
<path d="M13320 7682 c-19 -9 -43 -33 -55 -52 -19 -34 -20 -51 -20 -500 0
-449 1 -466 20 -500 34 -57 72 -70 210 -70 133 0 171 12 209 63 21 28 21 39
21 507 0 468 0 479 -21 507 -38 51 -76 63 -209 63 -94 0 -127 -4 -155 -18z
m213 -139 c11 -6 8 -805 -3 -823 -6 -10 -25 -15 -55 -15 -30 0 -49 5 -55 15
-6 9 -9 174 -7 415 l2 399 25 13 c22 11 70 9 93 -4z"/>
<path d="M13880 7682 c-62 -31 -74 -72 -75 -257 0 -209 0 -210 176 -310 53
-30 102 -62 110 -71 18 -21 20 -307 3 -324 -6 -6 -27 -13 -46 -16 -28 -5 -40
-2 -57 15 -19 19 -21 32 -21 161 l0 140 -81 0 -81 0 4 -177 c3 -193 9 -219 61
-257 26 -19 42 -21 166 -21 221 0 225 4 229 285 2 123 0 209 -7 232 -14 47
-70 95 -173 149 -119 62 -118 59 -118 188 0 88 3 111 16 122 19 16 91 16 106
1 5 -5 12 -55 15 -111 l6 -101 80 0 80 0 -6 130 c-9 216 -33 240 -232 240 -94
0 -128 -4 -155 -18z"/>
<path d="M10360 7130 l0 -560 165 0 165 0 0 70 0 70 -80 0 -80 0 0 490 0 490
-85 0 -85 0 0 -560z"/>
<path d="M10770 7130 l0 -560 85 0 85 0 0 560 0 560 -85 0 -85 0 0 -560z"/>
<path d="M11060 7130 l0 -560 70 0 70 0 2 378 3 377 33 -260 c19 -143 41 -313
49 -377 l16 -118 73 0 c71 0 73 1 78 28 3 15 26 187 51 382 25 195 47 360 50
365 2 6 4 -167 4 -382 l1 -393 65 0 65 0 0 560 0 560 -113 0 -113 0 -43 -372
c-23 -205 -43 -374 -45 -375 -1 -1 -19 152 -39 340 -21 188 -41 357 -44 375
l-5 32 -114 0 -114 0 0 -560z"/>
<path d="M11810 7130 l0 -560 160 0 160 0 0 70 0 70 -75 0 -75 0 0 275 0 275
75 0 75 0 0 65 0 65 -75 0 -75 0 0 80 0 80 75 0 75 0 0 70 0 70 -160 0 -160 0
0 -560z"/>
<path d="M12230 7130 l0 -560 70 0 70 0 2 342 3 342 74 -310 c41 -170 78 -324
83 -341 l9 -33 89 0 90 0 0 560 0 560 -75 0 -75 0 -2 -351 -3 -352 -69 309
c-38 170 -73 328 -78 352 l-10 42 -89 0 -89 0 0 -560z"/>
<path d="M12790 7620 l0 -70 60 0 60 0 0 -490 0 -490 85 0 85 0 0 490 0 490
60 0 60 0 0 70 0 70 -205 0 -205 0 0 -70z"/>
<path d="M10186 3926 c3 -8 27 -33 54 -55 27 -23 60 -63 73 -89 16 -32 39 -58
75 -82 29 -19 68 -59 87 -88 26 -38 50 -60 93 -81 31 -17 72 -49 91 -72 22
-26 55 -51 90 -66 31 -14 77 -44 102 -68 40 -38 97 -65 136 -65 6 0 31 -15 56
-34 60 -46 74 -52 132 -61 29 -4 73 -21 105 -41 44 -27 66 -34 107 -34 36 0
70 -9 117 -31 57 -27 74 -30 116 -25 36 5 62 1 102 -14 53 -19 59 -20 308 -20
249 0 255 1 308 20 40 15 66 19 102 14 42 -5 59 -2 116 25 47 22 81 31 117 31
41 0 63 7 107 34 32 20 76 37 105 41 58 9 72 15 132 61 25 19 50 34 56 34 39
0 96 27 136 65 25 24 71 54 102 68 35 15 68 40 90 66 19 23 60 55 91 72 43 21
67 43 93 81 19 29 58 69 87 88 36 24 59 50 75 82 13 26 46 66 73 89 65 55 70
69 21 69 -48 0 -112 -52 -147 -121 -18 -36 -38 -58 -74 -80 -30 -19 -60 -48
-79 -79 -22 -36 -44 -56 -90 -80 -36 -20 -70 -47 -86 -70 -19 -27 -43 -45 -83
-61 -31 -13 -80 -45 -109 -71 -29 -26 -62 -48 -73 -48 -31 0 -87 -26 -132 -62
-28 -22 -57 -34 -96 -40 -34 -5 -77 -22 -111 -43 -46 -28 -66 -35 -109 -35
-36 0 -68 -8 -102 -25 -38 -19 -65 -25 -114 -25 -42 0 -86 -8 -121 -21 -48
-18 -64 -19 -112 -11 -44 7 -71 6 -115 -5 -51 -13 -65 -13 -116 0 -44 11 -71
12 -115 5 -48 -8 -64 -7 -112 11 -35 13 -79 21 -121 21 -49 0 -76 6 -114 25
-34 17 -66 25 -102 25 -43 0 -63 7 -109 35 -34 21 -77 38 -111 43 -39 6 -68
18 -96 40 -45 36 -101 62 -132 62 -11 0 -44 22 -73 48 -29 26 -78 58 -109 71
-41 16 -64 34 -84 63 -18 26 -48 50 -86 69 -45 23 -65 41 -89 79 -19 31 -48
60 -79 79 -36 22 -56 44 -74 80 -35 69 -99 121 -147 121 -29 0 -37 -4 -33 -14z"/>
<path d="M10492 3907 c18 -18 41 -47 50 -64 9 -18 42 -48 72 -68 31 -20 68
-53 82 -75 19 -28 41 -45 79 -61 34 -14 66 -37 89 -65 27 -32 49 -47 87 -58
28 -9 67 -30 87 -47 40 -35 90 -59 124 -59 13 0 46 -16 75 -36 39 -27 68 -38
110 -43 35 -4 77 -18 104 -34 35 -21 59 -27 103 -27 38 0 70 -7 98 -21 35 -18
53 -21 106 -16 46 5 74 2 103 -10 29 -11 54 -14 92 -8 29 3 63 7 77 7 14 0 48
-4 77 -7 38 -6 63 -3 92 8 29 12 57 15 103 10 53 -5 71 -2 106 16 28 14 60 21
98 21 44 0 68 6 103 27 27 16 69 30 104 34 42 5 71 16 110 43 29 20 62 36 75
36 34 0 84 24 124 59 20 17 59 38 87 47 38 11 60 26 87 58 23 28 55 51 89 65
38 16 60 33 79 61 14 22 51 55 82 75 30 20 63 50 72 68 9 17 32 46 50 64 l33
33 -50 0 c-47 0 -52 -2 -67 -32 -23 -47 -44 -67 -87 -90 -21 -10 -52 -38 -68
-62 -21 -30 -47 -50 -88 -69 -34 -16 -69 -41 -88 -65 -24 -30 -44 -42 -80 -51
-30 -8 -63 -26 -89 -51 -31 -28 -54 -40 -89 -45 -28 -5 -66 -21 -97 -43 -37
-25 -67 -36 -107 -41 -32 -4 -75 -18 -101 -34 -36 -21 -58 -26 -100 -25 -39 1
-68 -5 -98 -21 -36 -18 -52 -21 -103 -15 -45 5 -70 2 -105 -11 -41 -16 -53
-16 -100 -5 -44 11 -64 11 -108 0 -47 -11 -59 -11 -100 5 -35 13 -60 16 -105
11 -51 -6 -67 -3 -103 15 -30 16 -59 22 -98 21 -42 -1 -64 4 -100 25 -26 16
-69 30 -101 34 -40 5 -70 16 -107 41 -31 22 -69 38 -97 43 -35 5 -58 17 -89
45 -26 25 -59 43 -89 51 -36 9 -56 21 -80 51 -19 24 -54 49 -88 65 -41 19 -67
39 -88 69 -16 24 -45 50 -63 60 -47 23 -67 43 -89 87 -19 35 -22 37 -70 37
l-50 0 33 -33z"/>
</g>
</svg>
